<svg xmlns="http://www.w3.org/2000/svg" width="16" height="16" fill="none"><g clip-path="url(#a)"><path fill="#F4B7AE" fill-rule="evenodd" d="M13 9c0 .97-.28 1.88-.76 2.65l1.7 1.06a6.97 6.97 0 0 0-.56-8.2L12.2 6.3c.5.78.79 1.7.79 2.7Zm-2.3-4.2a5 5 0 0 0-6.94 6.86l-1.7 1.05a7 7 0 0 1 10.42-9.09L10.7 4.8Z" clip-rule="evenodd"/><path fill="#E76E5C" d="m9.72 10.1 4.56-6.97c.18-.27-.14-.59-.41-.41L6.9 7.28a2.03 2.03 0 1 0 2.81 2.81Z"/></g><defs><clipPath id="a"><path fill="#fff" d="M0 0h16v16H0z"/></clipPath></defs></svg>