<svg width="128" height="128" viewBox="0 0 128 128" fill="none" xmlns="http://www.w3.org/2000/svg">
    <path d="M108.466 39.804c-.677.526-12.626 7.263-12.626 22.243 0 17.328 15.205 23.458 15.66 23.61-.07.373-2.416 8.395-8.017 16.568-4.994 7.192-10.21 14.373-18.146 14.373-7.935 0-9.977-4.612-19.137-4.612-8.927 0-12.101 4.764-19.36 4.764-7.258 0-12.323-6.655-18.146-14.829C21.95 92.323 16.5 77.413 16.5 63.261c0-22.698 14.75-34.736 29.267-34.736 7.713 0 14.143 5.067 18.986 5.067 4.61 0 11.797-5.37 20.573-5.37 3.326 0 15.275.303 23.14 11.582zM81.16 18.612c3.629-4.309 6.196-10.287 6.196-16.265 0-.83-.07-1.67-.222-2.347-5.904.222-12.93 3.935-17.165 8.85-3.326 3.784-6.43 9.762-6.43 15.822 0 .91.152 1.821.222 2.113.373.07.98.152 1.587.152 5.298 0 11.96-3.55 15.812-8.325z" fill="#000"/>
</svg>
